<mxfile host="app.diagrams.net" modified="2021-06-01T07:06:31.133Z" agent="5.0 (Windows NT 10.0; Win64; x64) AppleWebKit/537.36 (KHTML, like Gecko) Chrome/91.0.4472.77 Safari/537.36" etag="wr3OMIq3gJmtTWmjlIIU" version="14.7.3" type="github">
  <diagram name="Page-1" id="13e1069c-82ec-6db2-03f1-153e76fe0fe0">
    <mxGraphModel dx="2031" dy="1089" grid="1" gridSize="10" guides="1" tooltips="1" connect="1" arrows="0" fold="1" page="1" pageScale="1" pageWidth="1100" pageHeight="850" background="none" math="0" shadow="0">
      <root>
        <mxCell id="0" />
        <mxCell id="1" parent="0" />
        <mxCell id="7baba1c4bc27f4b0-2" value="ConnectPCUtil" style="shape=umlLifeline;perimeter=lifelinePerimeter;whiteSpace=wrap;html=1;container=1;collapsible=0;recursiveResize=0;outlineConnect=0;rounded=1;shadow=0;comic=0;labelBackgroundColor=none;strokeWidth=1;fontFamily=Verdana;fontSize=12;align=center;" parent="1" vertex="1">
          <mxGeometry x="240" y="80" width="100" height="580" as="geometry" />
        </mxCell>
        <mxCell id="7baba1c4bc27f4b0-10" value="" style="html=1;points=[];perimeter=orthogonalPerimeter;rounded=0;shadow=0;comic=0;labelBackgroundColor=none;strokeWidth=1;fontFamily=Verdana;fontSize=12;align=center;" parent="7baba1c4bc27f4b0-2" vertex="1">
          <mxGeometry x="45" y="100" width="10" height="230" as="geometry" />
        </mxCell>
        <mxCell id="bZ2BYmwptKXmW-rIYZp9-3" value="" style="html=1;points=[];perimeter=orthogonalPerimeter;" vertex="1" parent="7baba1c4bc27f4b0-2">
          <mxGeometry x="50" y="180" width="10" height="40" as="geometry" />
        </mxCell>
        <mxCell id="bZ2BYmwptKXmW-rIYZp9-4" value="self call" style="edgeStyle=orthogonalEdgeStyle;html=1;align=left;spacingLeft=2;endArrow=block;rounded=0;entryX=1;entryY=0;" edge="1" target="bZ2BYmwptKXmW-rIYZp9-3" parent="7baba1c4bc27f4b0-2">
          <mxGeometry relative="1" as="geometry">
            <mxPoint x="55" y="160" as="sourcePoint" />
            <Array as="points">
              <mxPoint x="85" y="160" />
            </Array>
          </mxGeometry>
        </mxCell>
        <mxCell id="bZ2BYmwptKXmW-rIYZp9-6" value="" style="html=1;points=[];perimeter=orthogonalPerimeter;" vertex="1" parent="7baba1c4bc27f4b0-2">
          <mxGeometry x="55" y="270" width="10" height="40" as="geometry" />
        </mxCell>
        <mxCell id="bZ2BYmwptKXmW-rIYZp9-7" value="self call" style="edgeStyle=orthogonalEdgeStyle;html=1;align=left;spacingLeft=2;endArrow=block;rounded=0;entryX=1;entryY=0;" edge="1" target="bZ2BYmwptKXmW-rIYZp9-6" parent="7baba1c4bc27f4b0-2">
          <mxGeometry relative="1" as="geometry">
            <mxPoint x="60" y="250" as="sourcePoint" />
            <Array as="points">
              <mxPoint x="90" y="250" />
            </Array>
          </mxGeometry>
        </mxCell>
        <mxCell id="7baba1c4bc27f4b0-3" value="SynergyService" style="shape=umlLifeline;perimeter=lifelinePerimeter;whiteSpace=wrap;html=1;container=1;collapsible=0;recursiveResize=0;outlineConnect=0;rounded=1;shadow=0;comic=0;labelBackgroundColor=none;strokeWidth=1;fontFamily=Verdana;fontSize=12;align=center;" parent="1" vertex="1">
          <mxGeometry x="400" y="80" width="100" height="580" as="geometry" />
        </mxCell>
        <mxCell id="7baba1c4bc27f4b0-13" value="" style="html=1;points=[];perimeter=orthogonalPerimeter;rounded=0;shadow=0;comic=0;labelBackgroundColor=none;strokeWidth=1;fontFamily=Verdana;fontSize=12;align=center;" parent="7baba1c4bc27f4b0-3" vertex="1">
          <mxGeometry x="45" y="120" width="10" height="200" as="geometry" />
        </mxCell>
        <mxCell id="bZ2BYmwptKXmW-rIYZp9-30" value="" style="html=1;points=[];perimeter=orthogonalPerimeter;" vertex="1" parent="7baba1c4bc27f4b0-3">
          <mxGeometry x="55" y="165" width="10" height="40" as="geometry" />
        </mxCell>
        <mxCell id="bZ2BYmwptKXmW-rIYZp9-31" value="self call" style="edgeStyle=orthogonalEdgeStyle;html=1;align=left;spacingLeft=2;endArrow=block;rounded=0;entryX=1;entryY=0;" edge="1" target="bZ2BYmwptKXmW-rIYZp9-30" parent="7baba1c4bc27f4b0-3">
          <mxGeometry x="0.2" y="20" relative="1" as="geometry">
            <mxPoint x="60" y="145" as="sourcePoint" />
            <Array as="points">
              <mxPoint x="90" y="145" />
            </Array>
            <mxPoint as="offset" />
          </mxGeometry>
        </mxCell>
        <mxCell id="bZ2BYmwptKXmW-rIYZp9-33" value="" style="html=1;points=[];perimeter=orthogonalPerimeter;" vertex="1" parent="7baba1c4bc27f4b0-3">
          <mxGeometry x="50" y="240" width="10" height="40" as="geometry" />
        </mxCell>
        <mxCell id="bZ2BYmwptKXmW-rIYZp9-34" value="self call" style="edgeStyle=orthogonalEdgeStyle;html=1;align=left;spacingLeft=2;endArrow=block;rounded=0;entryX=1;entryY=0;" edge="1" target="bZ2BYmwptKXmW-rIYZp9-33" parent="7baba1c4bc27f4b0-3">
          <mxGeometry relative="1" as="geometry">
            <mxPoint x="55" y="220" as="sourcePoint" />
            <Array as="points">
              <mxPoint x="90" y="220" />
              <mxPoint x="90" y="240" />
            </Array>
          </mxGeometry>
        </mxCell>
        <mxCell id="bZ2BYmwptKXmW-rIYZp9-36" value="" style="html=1;points=[];perimeter=orthogonalPerimeter;" vertex="1" parent="7baba1c4bc27f4b0-3">
          <mxGeometry x="45" y="370" width="10" height="40" as="geometry" />
        </mxCell>
        <mxCell id="bZ2BYmwptKXmW-rIYZp9-37" value="self call" style="edgeStyle=orthogonalEdgeStyle;html=1;align=left;spacingLeft=2;endArrow=block;rounded=0;entryX=1;entryY=0;" edge="1" target="bZ2BYmwptKXmW-rIYZp9-36" parent="7baba1c4bc27f4b0-3">
          <mxGeometry relative="1" as="geometry">
            <mxPoint x="50" y="350" as="sourcePoint" />
            <Array as="points">
              <mxPoint x="80" y="350" />
            </Array>
          </mxGeometry>
        </mxCell>
        <mxCell id="bZ2BYmwptKXmW-rIYZp9-39" value="" style="html=1;points=[];perimeter=orthogonalPerimeter;" vertex="1" parent="7baba1c4bc27f4b0-3">
          <mxGeometry x="45" y="440" width="10" height="40" as="geometry" />
        </mxCell>
        <mxCell id="bZ2BYmwptKXmW-rIYZp9-40" value="self call" style="edgeStyle=orthogonalEdgeStyle;html=1;align=left;spacingLeft=2;endArrow=block;rounded=0;entryX=1;entryY=0;" edge="1" target="bZ2BYmwptKXmW-rIYZp9-39" parent="7baba1c4bc27f4b0-3">
          <mxGeometry relative="1" as="geometry">
            <mxPoint x="50" y="420" as="sourcePoint" />
            <Array as="points">
              <mxPoint x="80" y="420" />
            </Array>
          </mxGeometry>
        </mxCell>
        <mxCell id="7baba1c4bc27f4b0-4" value="HeySynergyApplication" style="shape=umlLifeline;perimeter=lifelinePerimeter;whiteSpace=wrap;html=1;container=1;collapsible=0;recursiveResize=0;outlineConnect=0;rounded=1;shadow=0;comic=0;labelBackgroundColor=none;strokeWidth=1;fontFamily=Verdana;fontSize=12;align=center;" parent="1" vertex="1">
          <mxGeometry x="540" y="80" width="100" height="580" as="geometry" />
        </mxCell>
        <mxCell id="7baba1c4bc27f4b0-5" value="BleScanManager" style="shape=umlLifeline;perimeter=lifelinePerimeter;whiteSpace=wrap;html=1;container=1;collapsible=0;recursiveResize=0;outlineConnect=0;rounded=1;shadow=0;comic=0;labelBackgroundColor=none;strokeWidth=1;fontFamily=Verdana;fontSize=12;align=center;" parent="1" vertex="1">
          <mxGeometry x="680" y="80" width="100" height="580" as="geometry" />
        </mxCell>
        <mxCell id="7baba1c4bc27f4b0-6" value="DataCollect" style="shape=umlLifeline;perimeter=lifelinePerimeter;whiteSpace=wrap;html=1;container=1;collapsible=0;recursiveResize=0;outlineConnect=0;rounded=1;shadow=0;comic=0;labelBackgroundColor=none;strokeWidth=1;fontFamily=Verdana;fontSize=12;align=center;" parent="1" vertex="1">
          <mxGeometry x="820" y="80" width="100" height="580" as="geometry" />
        </mxCell>
        <mxCell id="7baba1c4bc27f4b0-7" value="PC/SynergyConnection" style="shape=umlLifeline;perimeter=lifelinePerimeter;whiteSpace=wrap;html=1;container=1;collapsible=0;recursiveResize=0;outlineConnect=0;rounded=1;shadow=0;comic=0;labelBackgroundColor=none;strokeWidth=1;fontFamily=Verdana;fontSize=12;align=center;" parent="1" vertex="1">
          <mxGeometry x="960" y="80" width="100" height="1180" as="geometry" />
        </mxCell>
        <mxCell id="bZ2BYmwptKXmW-rIYZp9-73" value="" style="html=1;points=[];perimeter=orthogonalPerimeter;" vertex="1" parent="7baba1c4bc27f4b0-7">
          <mxGeometry x="40" y="580" width="10" height="80" as="geometry" />
        </mxCell>
        <mxCell id="bZ2BYmwptKXmW-rIYZp9-74" value="dispatch" style="html=1;verticalAlign=bottom;startArrow=oval;endArrow=block;startSize=8;" edge="1" target="bZ2BYmwptKXmW-rIYZp9-73" parent="7baba1c4bc27f4b0-7">
          <mxGeometry relative="1" as="geometry">
            <mxPoint x="-20" y="580" as="sourcePoint" />
          </mxGeometry>
        </mxCell>
        <mxCell id="bZ2BYmwptKXmW-rIYZp9-75" value="" style="html=1;points=[];perimeter=orthogonalPerimeter;" vertex="1" parent="7baba1c4bc27f4b0-7">
          <mxGeometry x="40" y="630" width="10" height="40" as="geometry" />
        </mxCell>
        <mxCell id="bZ2BYmwptKXmW-rIYZp9-76" value="self call" style="edgeStyle=orthogonalEdgeStyle;html=1;align=left;spacingLeft=2;endArrow=block;rounded=0;entryX=1;entryY=0;" edge="1" target="bZ2BYmwptKXmW-rIYZp9-75" parent="7baba1c4bc27f4b0-7">
          <mxGeometry relative="1" as="geometry">
            <mxPoint x="45" y="610" as="sourcePoint" />
            <Array as="points">
              <mxPoint x="75" y="610" />
            </Array>
          </mxGeometry>
        </mxCell>
        <mxCell id="bZ2BYmwptKXmW-rIYZp9-86" value="" style="html=1;points=[];perimeter=orthogonalPerimeter;" vertex="1" parent="7baba1c4bc27f4b0-7">
          <mxGeometry x="45" y="810" width="10" height="40" as="geometry" />
        </mxCell>
        <mxCell id="bZ2BYmwptKXmW-rIYZp9-87" value="self call" style="edgeStyle=orthogonalEdgeStyle;html=1;align=left;spacingLeft=2;endArrow=block;rounded=0;entryX=1;entryY=0;" edge="1" target="bZ2BYmwptKXmW-rIYZp9-86" parent="7baba1c4bc27f4b0-7">
          <mxGeometry relative="1" as="geometry">
            <mxPoint x="50" y="790" as="sourcePoint" />
            <Array as="points">
              <mxPoint x="80" y="790" />
            </Array>
          </mxGeometry>
        </mxCell>
        <mxCell id="bZ2BYmwptKXmW-rIYZp9-89" value="" style="html=1;points=[];perimeter=orthogonalPerimeter;" vertex="1" parent="7baba1c4bc27f4b0-7">
          <mxGeometry x="45" y="900" width="10" height="40" as="geometry" />
        </mxCell>
        <mxCell id="bZ2BYmwptKXmW-rIYZp9-90" value="self call" style="edgeStyle=orthogonalEdgeStyle;html=1;align=left;spacingLeft=2;endArrow=block;rounded=0;entryX=1;entryY=0;" edge="1" target="bZ2BYmwptKXmW-rIYZp9-89" parent="7baba1c4bc27f4b0-7">
          <mxGeometry relative="1" as="geometry">
            <mxPoint x="50" y="880" as="sourcePoint" />
            <Array as="points">
              <mxPoint x="80" y="880" />
            </Array>
          </mxGeometry>
        </mxCell>
        <mxCell id="bZ2BYmwptKXmW-rIYZp9-97" value="" style="html=1;points=[];perimeter=orthogonalPerimeter;" vertex="1" parent="7baba1c4bc27f4b0-7">
          <mxGeometry x="45" y="1050" width="10" height="40" as="geometry" />
        </mxCell>
        <mxCell id="bZ2BYmwptKXmW-rIYZp9-98" value="self call" style="edgeStyle=orthogonalEdgeStyle;html=1;align=left;spacingLeft=2;endArrow=block;rounded=0;entryX=1;entryY=0;" edge="1" target="bZ2BYmwptKXmW-rIYZp9-97" parent="7baba1c4bc27f4b0-7">
          <mxGeometry relative="1" as="geometry">
            <mxPoint x="50" y="1030" as="sourcePoint" />
            <Array as="points">
              <mxPoint x="80" y="1030" />
            </Array>
          </mxGeometry>
        </mxCell>
        <mxCell id="7baba1c4bc27f4b0-8" value="SynergyTileService" style="shape=umlLifeline;perimeter=lifelinePerimeter;whiteSpace=wrap;html=1;container=1;collapsible=0;recursiveResize=0;outlineConnect=0;rounded=1;shadow=0;comic=0;labelBackgroundColor=none;strokeWidth=1;fontFamily=Verdana;fontSize=12;align=center;" parent="1" vertex="1">
          <mxGeometry x="100" y="80" width="100" height="580" as="geometry" />
        </mxCell>
        <mxCell id="7baba1c4bc27f4b0-9" value="" style="html=1;points=[];perimeter=orthogonalPerimeter;rounded=0;shadow=0;comic=0;labelBackgroundColor=none;strokeWidth=1;fontFamily=Verdana;fontSize=12;align=center;" parent="7baba1c4bc27f4b0-8" vertex="1">
          <mxGeometry x="45" y="100" width="10" height="440" as="geometry" />
        </mxCell>
        <mxCell id="bZ2BYmwptKXmW-rIYZp9-11" value="" style="html=1;points=[];perimeter=orthogonalPerimeter;" vertex="1" parent="7baba1c4bc27f4b0-8">
          <mxGeometry x="50" y="410" width="10" height="40" as="geometry" />
        </mxCell>
        <mxCell id="bZ2BYmwptKXmW-rIYZp9-12" value="self call" style="edgeStyle=orthogonalEdgeStyle;html=1;align=left;spacingLeft=2;endArrow=block;rounded=0;entryX=1;entryY=0;" edge="1" target="bZ2BYmwptKXmW-rIYZp9-11" parent="7baba1c4bc27f4b0-8">
          <mxGeometry relative="1" as="geometry">
            <mxPoint x="55" y="390" as="sourcePoint" />
            <Array as="points">
              <mxPoint x="85" y="390" />
            </Array>
          </mxGeometry>
        </mxCell>
        <mxCell id="bZ2BYmwptKXmW-rIYZp9-14" value="" style="html=1;points=[];perimeter=orthogonalPerimeter;" vertex="1" parent="7baba1c4bc27f4b0-8">
          <mxGeometry x="50" y="490" width="10" height="40" as="geometry" />
        </mxCell>
        <mxCell id="bZ2BYmwptKXmW-rIYZp9-15" value="self call" style="edgeStyle=orthogonalEdgeStyle;html=1;align=left;spacingLeft=2;endArrow=block;rounded=0;entryX=1;entryY=0;" edge="1" target="bZ2BYmwptKXmW-rIYZp9-14" parent="7baba1c4bc27f4b0-8">
          <mxGeometry x="0.0667" y="25" relative="1" as="geometry">
            <mxPoint x="55" y="470" as="sourcePoint" />
            <Array as="points">
              <mxPoint x="85" y="470" />
            </Array>
            <mxPoint as="offset" />
          </mxGeometry>
        </mxCell>
        <mxCell id="7baba1c4bc27f4b0-16" value="" style="html=1;points=[];perimeter=orthogonalPerimeter;rounded=0;shadow=0;comic=0;labelBackgroundColor=none;strokeWidth=1;fontFamily=Verdana;fontSize=12;align=center;" parent="1" vertex="1">
          <mxGeometry x="585" y="220" width="10" height="180" as="geometry" />
        </mxCell>
        <mxCell id="7baba1c4bc27f4b0-19" value="" style="html=1;points=[];perimeter=orthogonalPerimeter;rounded=0;shadow=0;comic=0;labelBackgroundColor=none;strokeWidth=1;fontFamily=Verdana;fontSize=12;align=center;" parent="1" vertex="1">
          <mxGeometry x="725" y="230" width="10" height="40" as="geometry" />
        </mxCell>
        <mxCell id="7baba1c4bc27f4b0-20" value="dispatch" style="html=1;verticalAlign=bottom;endArrow=block;entryX=0;entryY=0;labelBackgroundColor=none;fontFamily=Verdana;fontSize=12;edgeStyle=elbowEdgeStyle;elbow=vertical;" parent="1" source="7baba1c4bc27f4b0-16" target="7baba1c4bc27f4b0-19" edge="1">
          <mxGeometry relative="1" as="geometry">
            <mxPoint x="650" y="230" as="sourcePoint" />
          </mxGeometry>
        </mxCell>
        <mxCell id="7baba1c4bc27f4b0-21" value="return" style="html=1;verticalAlign=bottom;endArrow=open;dashed=1;endSize=8;labelBackgroundColor=none;fontFamily=Verdana;fontSize=12;edgeStyle=elbowEdgeStyle;elbow=vertical;" parent="1" source="7baba1c4bc27f4b0-19" target="7baba1c4bc27f4b0-16" edge="1">
          <mxGeometry relative="1" as="geometry">
            <mxPoint x="650" y="306" as="targetPoint" />
            <Array as="points">
              <mxPoint x="670" y="260" />
              <mxPoint x="700" y="260" />
            </Array>
          </mxGeometry>
        </mxCell>
        <mxCell id="bZ2BYmwptKXmW-rIYZp9-26" style="edgeStyle=orthogonalEdgeStyle;rounded=0;orthogonalLoop=1;jettySize=auto;html=1;entryX=0.5;entryY=0.879;entryDx=0;entryDy=0;entryPerimeter=0;" edge="1" parent="1" source="7baba1c4bc27f4b0-22" target="7baba1c4bc27f4b0-5">
          <mxGeometry relative="1" as="geometry" />
        </mxCell>
        <mxCell id="7baba1c4bc27f4b0-22" value="" style="html=1;points=[];perimeter=orthogonalPerimeter;rounded=0;shadow=0;comic=0;labelBackgroundColor=none;strokeWidth=1;fontFamily=Verdana;fontSize=12;align=center;" parent="1" vertex="1">
          <mxGeometry x="590" y="520" width="10" height="140" as="geometry" />
        </mxCell>
        <mxCell id="7baba1c4bc27f4b0-25" value="" style="html=1;points=[];perimeter=orthogonalPerimeter;rounded=0;shadow=0;comic=0;labelBackgroundColor=none;strokeColor=#000000;strokeWidth=1;fillColor=#FFFFFF;fontFamily=Verdana;fontSize=12;fontColor=#000000;align=center;" parent="1" vertex="1">
          <mxGeometry x="1005" y="460" width="10" height="30" as="geometry" />
        </mxCell>
        <mxCell id="7baba1c4bc27f4b0-28" value="" style="html=1;points=[];perimeter=orthogonalPerimeter;rounded=0;shadow=0;comic=0;labelBackgroundColor=none;strokeWidth=1;fontFamily=Verdana;fontSize=12;align=center;" parent="1" vertex="1">
          <mxGeometry x="870" y="550" width="10" height="60" as="geometry" />
        </mxCell>
        <mxCell id="7baba1c4bc27f4b0-11" value="dispatch" style="html=1;verticalAlign=bottom;endArrow=block;entryX=0;entryY=0;labelBackgroundColor=none;fontFamily=Verdana;fontSize=12;edgeStyle=elbowEdgeStyle;elbow=vertical;" parent="1" source="7baba1c4bc27f4b0-9" target="7baba1c4bc27f4b0-10" edge="1">
          <mxGeometry y="10" relative="1" as="geometry">
            <mxPoint x="220" y="190" as="sourcePoint" />
            <mxPoint as="offset" />
          </mxGeometry>
        </mxCell>
        <mxCell id="7baba1c4bc27f4b0-34" value="" style="html=1;points=[];perimeter=orthogonalPerimeter;rounded=0;shadow=0;comic=0;labelBackgroundColor=none;strokeWidth=1;fontFamily=Verdana;fontSize=12;align=center;" parent="1" vertex="1">
          <mxGeometry x="590" y="300" width="10" height="70" as="geometry" />
        </mxCell>
        <mxCell id="7baba1c4bc27f4b0-35" value="dispatch" style="html=1;verticalAlign=bottom;endArrow=block;labelBackgroundColor=none;fontFamily=Verdana;fontSize=12;elbow=vertical;edgeStyle=orthogonalEdgeStyle;curved=1;entryX=1;entryY=0.286;entryPerimeter=0;exitX=1.038;exitY=0.345;exitPerimeter=0;" parent="1" source="7baba1c4bc27f4b0-16" target="7baba1c4bc27f4b0-34" edge="1">
          <mxGeometry relative="1" as="geometry">
            <mxPoint x="465" y="230" as="sourcePoint" />
            <mxPoint x="595" y="230" as="targetPoint" />
            <Array as="points">
              <mxPoint x="650" y="282" />
              <mxPoint x="650" y="320" />
            </Array>
          </mxGeometry>
        </mxCell>
        <mxCell id="7baba1c4bc27f4b0-36" value="dispatch" style="html=1;verticalAlign=bottom;endArrow=block;labelBackgroundColor=none;fontFamily=Verdana;fontSize=12;elbow=vertical;edgeStyle=orthogonalEdgeStyle;curved=1;exitX=1.066;exitY=0.713;exitPerimeter=0;" parent="1" source="7baba1c4bc27f4b0-34" edge="1">
          <mxGeometry relative="1" as="geometry">
            <mxPoint x="610.3333333333333" y="350" as="sourcePoint" />
            <mxPoint x="595" y="389" as="targetPoint" />
            <Array as="points">
              <mxPoint x="650" y="350" />
              <mxPoint x="650" y="389" />
            </Array>
          </mxGeometry>
        </mxCell>
        <mxCell id="7baba1c4bc27f4b0-40" value="Note" style="shape=note;whiteSpace=wrap;html=1;size=14;verticalAlign=top;align=left;spacingTop=-6;rounded=0;shadow=0;comic=0;labelBackgroundColor=none;strokeWidth=1;fontFamily=Verdana;fontSize=12" parent="1" vertex="1">
          <mxGeometry x="100" y="30" width="100" height="35" as="geometry" />
        </mxCell>
        <mxCell id="7baba1c4bc27f4b0-41" value="Note" style="shape=note;whiteSpace=wrap;html=1;size=14;verticalAlign=top;align=left;spacingTop=-6;rounded=0;shadow=0;comic=0;labelBackgroundColor=none;strokeWidth=1;fontFamily=Verdana;fontSize=12" parent="1" vertex="1">
          <mxGeometry x="240" y="30" width="100" height="35" as="geometry" />
        </mxCell>
        <mxCell id="7baba1c4bc27f4b0-42" value="Note" style="shape=note;whiteSpace=wrap;html=1;size=14;verticalAlign=top;align=left;spacingTop=-6;rounded=0;shadow=0;comic=0;labelBackgroundColor=none;strokeWidth=1;fontFamily=Verdana;fontSize=12" parent="1" vertex="1">
          <mxGeometry x="400" y="30" width="100" height="35" as="geometry" />
        </mxCell>
        <mxCell id="7baba1c4bc27f4b0-43" value="Note" style="shape=note;whiteSpace=wrap;html=1;size=14;verticalAlign=top;align=left;spacingTop=-6;rounded=0;shadow=0;comic=0;labelBackgroundColor=none;strokeWidth=1;fontFamily=Verdana;fontSize=12" parent="1" vertex="1">
          <mxGeometry x="540" y="30" width="100" height="35" as="geometry" />
        </mxCell>
        <mxCell id="7baba1c4bc27f4b0-44" value="Note" style="shape=note;whiteSpace=wrap;html=1;size=14;verticalAlign=top;align=left;spacingTop=-6;rounded=0;shadow=0;comic=0;labelBackgroundColor=none;strokeWidth=1;fontFamily=Verdana;fontSize=12" parent="1" vertex="1">
          <mxGeometry x="680" y="30" width="100" height="35" as="geometry" />
        </mxCell>
        <mxCell id="7baba1c4bc27f4b0-45" value="Note" style="shape=note;whiteSpace=wrap;html=1;size=14;verticalAlign=top;align=left;spacingTop=-6;rounded=0;shadow=0;comic=0;labelBackgroundColor=none;strokeWidth=1;fontFamily=Verdana;fontSize=12" parent="1" vertex="1">
          <mxGeometry x="820" y="30" width="100" height="35" as="geometry" />
        </mxCell>
        <mxCell id="7baba1c4bc27f4b0-46" value="Note" style="shape=note;whiteSpace=wrap;html=1;size=14;verticalAlign=top;align=left;spacingTop=-6;rounded=0;shadow=0;comic=0;labelBackgroundColor=none;strokeWidth=1;fontFamily=Verdana;fontSize=12" parent="1" vertex="1">
          <mxGeometry x="960" y="30" width="100" height="35" as="geometry" />
        </mxCell>
        <mxCell id="bZ2BYmwptKXmW-rIYZp9-2" value="&lt;pre style=&quot;background-color: #2b2b2b ; color: #a9b7c6 ; font-family: &amp;#34;jetbrains mono&amp;#34; , monospace ; font-size: 9.8pt&quot;&gt;&lt;span style=&quot;color: #ffc66d&quot;&gt;onClick()&lt;/span&gt;&lt;/pre&gt;" style="text;html=1;align=center;verticalAlign=middle;resizable=0;points=[];autosize=1;strokeColor=none;" vertex="1" parent="1">
          <mxGeometry x="190" y="135" width="80" height="50" as="geometry" />
        </mxCell>
        <mxCell id="bZ2BYmwptKXmW-rIYZp9-5" value="&lt;pre style=&quot;background-color: #2b2b2b ; color: #a9b7c6 ; font-family: &amp;#34;jetbrains mono&amp;#34; , monospace ; font-size: 9.8pt&quot;&gt;&lt;span style=&quot;color: #ffc66d&quot;&gt;setSynergyOn&lt;/span&gt;&lt;/pre&gt;" style="text;html=1;align=center;verticalAlign=middle;resizable=0;points=[];autosize=1;strokeColor=none;" vertex="1" parent="1">
          <mxGeometry x="300" y="225" width="100" height="50" as="geometry" />
        </mxCell>
        <mxCell id="bZ2BYmwptKXmW-rIYZp9-8" value="&lt;pre style=&quot;background-color: #2b2b2b ; color: #a9b7c6 ; font-family: &amp;#34;jetbrains mono&amp;#34; , monospace ; font-size: 9.8pt&quot;&gt;&lt;span style=&quot;color: #ffc66d&quot;&gt;setSynergySwitchState&lt;/span&gt;&lt;/pre&gt;" style="text;html=1;align=center;verticalAlign=middle;resizable=0;points=[];autosize=1;strokeColor=none;" vertex="1" parent="1">
          <mxGeometry x="270" y="315" width="160" height="50" as="geometry" />
        </mxCell>
        <mxCell id="bZ2BYmwptKXmW-rIYZp9-9" value="dispatch" style="html=1;verticalAlign=bottom;endArrow=block;" edge="1" parent="1" source="7baba1c4bc27f4b0-2" target="7baba1c4bc27f4b0-6">
          <mxGeometry x="-0.2397" width="80" relative="1" as="geometry">
            <mxPoint x="510" y="350" as="sourcePoint" />
            <mxPoint x="590" y="350" as="targetPoint" />
            <Array as="points">
              <mxPoint x="510" y="400" />
            </Array>
            <mxPoint x="1" as="offset" />
          </mxGeometry>
        </mxCell>
        <mxCell id="bZ2BYmwptKXmW-rIYZp9-10" value="&lt;pre style=&quot;background-color: rgb(43 , 43 , 43) ; font-family: &amp;#34;jetbrains mono&amp;#34; , monospace ; font-size: 9.8pt&quot;&gt;&lt;span style=&quot;font-style: italic&quot;&gt;&lt;font color=&quot;#ffd966&quot;&gt;addConnectPCSwitchOn()&lt;/font&gt;&lt;/span&gt;&lt;/pre&gt;" style="text;html=1;align=center;verticalAlign=middle;resizable=0;points=[];autosize=1;strokeColor=none;" vertex="1" parent="1">
          <mxGeometry x="415" y="365" width="170" height="50" as="geometry" />
        </mxCell>
        <mxCell id="bZ2BYmwptKXmW-rIYZp9-13" value="&lt;pre style=&quot;background-color: rgb(43 , 43 , 43) ; font-family: &amp;#34;jetbrains mono&amp;#34; , monospace ; font-size: 9.8pt&quot;&gt;&lt;font color=&quot;#ffd966&quot;&gt;mSwitchStateReceiver&lt;/font&gt;&lt;/pre&gt;" style="text;html=1;align=center;verticalAlign=middle;resizable=0;points=[];autosize=1;strokeColor=none;" vertex="1" parent="1">
          <mxGeometry x="130" y="455" width="160" height="50" as="geometry" />
        </mxCell>
        <mxCell id="bZ2BYmwptKXmW-rIYZp9-17" value="&lt;pre style=&quot;background-color: rgb(43 , 43 , 43) ; font-family: &amp;#34;jetbrains mono&amp;#34; , monospace ; font-size: 9.8pt&quot;&gt;&lt;font color=&quot;#ffd966&quot;&gt;updateState&lt;/font&gt;&lt;/pre&gt;" style="text;html=1;align=center;verticalAlign=middle;resizable=0;points=[];autosize=1;strokeColor=none;" vertex="1" parent="1">
          <mxGeometry x="185" y="535" width="90" height="50" as="geometry" />
        </mxCell>
        <mxCell id="bZ2BYmwptKXmW-rIYZp9-23" style="edgeStyle=orthogonalEdgeStyle;rounded=0;orthogonalLoop=1;jettySize=auto;html=1;entryX=0.5;entryY=0.879;entryDx=0;entryDy=0;entryPerimeter=0;" edge="1" parent="1" source="bZ2BYmwptKXmW-rIYZp9-14" target="7baba1c4bc27f4b0-4">
          <mxGeometry relative="1" as="geometry" />
        </mxCell>
        <mxCell id="bZ2BYmwptKXmW-rIYZp9-24" value="&lt;pre style=&quot;background-color: #2b2b2b ; color: #a9b7c6 ; font-family: &amp;#34;jetbrains mono&amp;#34; , monospace ; font-size: 9.8pt&quot;&gt;&lt;span style=&quot;color: #ffc66d&quot;&gt;handleMessage&lt;/span&gt;&lt;/pre&gt;" style="edgeLabel;html=1;align=center;verticalAlign=middle;resizable=0;points=[];" vertex="1" connectable="0" parent="bZ2BYmwptKXmW-rIYZp9-23">
          <mxGeometry x="-0.205" y="2" relative="1" as="geometry">
            <mxPoint x="-22" as="offset" />
          </mxGeometry>
        </mxCell>
        <mxCell id="bZ2BYmwptKXmW-rIYZp9-25" value="TOGGLE_ON" style="edgeLabel;html=1;align=center;verticalAlign=middle;resizable=0;points=[];" vertex="1" connectable="0" parent="bZ2BYmwptKXmW-rIYZp9-23">
          <mxGeometry x="0.1306" y="2" relative="1" as="geometry">
            <mxPoint x="6" as="offset" />
          </mxGeometry>
        </mxCell>
        <mxCell id="bZ2BYmwptKXmW-rIYZp9-27" value="&lt;pre style=&quot;background-color: #2b2b2b ; color: #a9b7c6 ; font-family: &amp;#34;jetbrains mono&amp;#34; , monospace ; font-size: 9.8pt&quot;&gt;&lt;span style=&quot;color: #ffc66d&quot;&gt;startBleScan&lt;/span&gt;&lt;/pre&gt;" style="text;html=1;align=center;verticalAlign=middle;resizable=0;points=[];autosize=1;strokeColor=none;" vertex="1" parent="1">
          <mxGeometry x="600" y="565" width="100" height="50" as="geometry" />
        </mxCell>
        <mxCell id="bZ2BYmwptKXmW-rIYZp9-28" value="dispatch" style="html=1;verticalAlign=bottom;endArrow=block;" edge="1" parent="1">
          <mxGeometry width="80" relative="1" as="geometry">
            <mxPoint x="360" y="210" as="sourcePoint" />
            <mxPoint x="440" y="210" as="targetPoint" />
          </mxGeometry>
        </mxCell>
        <mxCell id="bZ2BYmwptKXmW-rIYZp9-29" value="&lt;pre style=&quot;background-color: rgb(43 , 43 , 43) ; font-family: &amp;#34;jetbrains mono&amp;#34; , monospace ; font-size: 9.8pt&quot;&gt;&lt;font color=&quot;#66ff66&quot;&gt;onStartCommand&lt;/font&gt;&lt;/pre&gt;" style="text;html=1;align=center;verticalAlign=middle;resizable=0;points=[];autosize=1;strokeColor=none;" vertex="1" parent="1">
          <mxGeometry x="335" y="175" width="110" height="50" as="geometry" />
        </mxCell>
        <mxCell id="bZ2BYmwptKXmW-rIYZp9-32" value="&lt;pre style=&quot;background-color: rgb(43 , 43 , 43) ; font-family: &amp;#34;jetbrains mono&amp;#34; , monospace ; font-size: 9.8pt&quot;&gt;&lt;font color=&quot;#66ff66&quot;&gt;showSynergyConnectNotification&lt;/font&gt;&lt;/pre&gt;" style="text;html=1;align=center;verticalAlign=middle;resizable=0;points=[];autosize=1;strokeColor=none;" vertex="1" parent="1">
          <mxGeometry x="395" y="215" width="230" height="50" as="geometry" />
        </mxCell>
        <mxCell id="bZ2BYmwptKXmW-rIYZp9-35" value="&lt;pre style=&quot;background-color: rgb(43 , 43 , 43) ; font-family: &amp;#34;jetbrains mono&amp;#34; , monospace ; font-size: 9.8pt&quot;&gt;&lt;font color=&quot;#66ff66&quot;&gt;synergyThings&lt;/font&gt;&lt;/pre&gt;" style="text;html=1;align=center;verticalAlign=middle;resizable=0;points=[];autosize=1;strokeColor=none;" vertex="1" parent="1">
          <mxGeometry x="455" y="285" width="110" height="50" as="geometry" />
        </mxCell>
        <mxCell id="bZ2BYmwptKXmW-rIYZp9-38" value="&lt;pre style=&quot;background-color: rgb(43 , 43 , 43) ; font-family: &amp;#34;jetbrains mono&amp;#34; , monospace ; font-size: 9.8pt&quot;&gt;&lt;font color=&quot;#66ff66&quot;&gt;buildSynergy&lt;/font&gt;&lt;/pre&gt;" style="text;html=1;align=center;verticalAlign=middle;resizable=0;points=[];autosize=1;strokeColor=none;" vertex="1" parent="1">
          <mxGeometry x="440" y="415" width="100" height="50" as="geometry" />
        </mxCell>
        <mxCell id="bZ2BYmwptKXmW-rIYZp9-41" value="&lt;pre style=&quot;background-color: rgb(43 , 43 , 43) ; font-family: &amp;#34;jetbrains mono&amp;#34; , monospace ; font-size: 9.8pt&quot;&gt;&lt;font color=&quot;#66ff66&quot;&gt;connectSynergy&lt;/font&gt;&lt;/pre&gt;" style="text;html=1;align=center;verticalAlign=middle;resizable=0;points=[];autosize=1;strokeColor=none;" vertex="1" parent="1">
          <mxGeometry x="435" y="485" width="110" height="50" as="geometry" />
        </mxCell>
        <mxCell id="bZ2BYmwptKXmW-rIYZp9-43" value="SynergyServiceManager" style="shape=umlLifeline;perimeter=lifelinePerimeter;whiteSpace=wrap;html=1;container=1;collapsible=0;recursiveResize=0;outlineConnect=0;rounded=1;shadow=0;comic=0;labelBackgroundColor=none;strokeWidth=1;fontFamily=Verdana;fontSize=12;align=center;" vertex="1" parent="1">
          <mxGeometry x="1110" y="80" width="100" height="580" as="geometry" />
        </mxCell>
        <mxCell id="bZ2BYmwptKXmW-rIYZp9-44" style="edgeStyle=orthogonalEdgeStyle;rounded=0;orthogonalLoop=1;jettySize=auto;html=1;entryX=-0.4;entryY=0.333;entryDx=0;entryDy=0;entryPerimeter=0;" edge="1" parent="1" source="bZ2BYmwptKXmW-rIYZp9-36" target="7baba1c4bc27f4b0-25">
          <mxGeometry relative="1" as="geometry" />
        </mxCell>
        <mxCell id="bZ2BYmwptKXmW-rIYZp9-45" value="&lt;pre style=&quot;background-color: rgb(43 , 43 , 43) ; font-family: &amp;#34;jetbrains mono&amp;#34; , monospace ; font-size: 9.8pt&quot;&gt;&lt;font color=&quot;#66ff66&quot;&gt;initialize&lt;/font&gt;&lt;/pre&gt;" style="edgeLabel;html=1;align=center;verticalAlign=middle;resizable=0;points=[];" vertex="1" connectable="0" parent="bZ2BYmwptKXmW-rIYZp9-44">
          <mxGeometry x="0.1795" y="3" relative="1" as="geometry">
            <mxPoint as="offset" />
          </mxGeometry>
        </mxCell>
        <mxCell id="bZ2BYmwptKXmW-rIYZp9-47" style="edgeStyle=orthogonalEdgeStyle;rounded=0;orthogonalLoop=1;jettySize=auto;html=1;" edge="1" parent="1" source="bZ2BYmwptKXmW-rIYZp9-39" target="7baba1c4bc27f4b0-7">
          <mxGeometry relative="1" as="geometry">
            <mxPoint x="455" y="540" as="sourcePoint" />
            <mxPoint x="1009.5" y="370" as="targetPoint" />
            <Array as="points">
              <mxPoint x="450" y="580" />
            </Array>
          </mxGeometry>
        </mxCell>
        <mxCell id="bZ2BYmwptKXmW-rIYZp9-48" value="&lt;pre style=&quot;background-color: rgb(43 , 43 , 43) ; font-family: &amp;#34;jetbrains mono&amp;#34; , monospace ; font-size: 9.8pt&quot;&gt;&lt;font color=&quot;#66ff66&quot;&gt;connect&lt;/font&gt;&lt;/pre&gt;" style="edgeLabel;html=1;align=center;verticalAlign=middle;resizable=0;points=[];" vertex="1" connectable="0" parent="bZ2BYmwptKXmW-rIYZp9-47">
          <mxGeometry x="0.1758" y="3" relative="1" as="geometry">
            <mxPoint as="offset" />
          </mxGeometry>
        </mxCell>
        <mxCell id="bZ2BYmwptKXmW-rIYZp9-49" value="" style="html=1;points=[];perimeter=orthogonalPerimeter;" vertex="1" parent="1">
          <mxGeometry x="1010" y="485" width="10" height="40" as="geometry" />
        </mxCell>
        <mxCell id="bZ2BYmwptKXmW-rIYZp9-50" value="self call" style="edgeStyle=orthogonalEdgeStyle;html=1;align=left;spacingLeft=2;endArrow=block;rounded=0;entryX=1;entryY=0;" edge="1" target="bZ2BYmwptKXmW-rIYZp9-49" parent="1">
          <mxGeometry relative="1" as="geometry">
            <mxPoint x="1015" y="465" as="sourcePoint" />
            <Array as="points">
              <mxPoint x="1045" y="465" />
            </Array>
          </mxGeometry>
        </mxCell>
        <mxCell id="bZ2BYmwptKXmW-rIYZp9-51" value="&lt;pre style=&quot;background-color: rgb(43 , 43 , 43) ; font-family: &amp;#34;jetbrains mono&amp;#34; , monospace ; font-size: 9.8pt&quot;&gt;&lt;font color=&quot;#66ff66&quot;&gt;prepareParallelActions&lt;/font&gt;&lt;/pre&gt;" style="text;html=1;align=center;verticalAlign=middle;resizable=0;points=[];autosize=1;strokeColor=none;" vertex="1" parent="1">
          <mxGeometry x="975" y="455" width="170" height="50" as="geometry" />
        </mxCell>
        <mxCell id="bZ2BYmwptKXmW-rIYZp9-52" value="" style="html=1;points=[];perimeter=orthogonalPerimeter;" vertex="1" parent="1">
          <mxGeometry x="1005" y="530" width="10" height="40" as="geometry" />
        </mxCell>
        <mxCell id="bZ2BYmwptKXmW-rIYZp9-53" value="self call" style="edgeStyle=orthogonalEdgeStyle;html=1;align=left;spacingLeft=2;endArrow=block;rounded=0;entryX=1;entryY=0;" edge="1" target="bZ2BYmwptKXmW-rIYZp9-52" parent="1">
          <mxGeometry relative="1" as="geometry">
            <mxPoint x="1010" y="510" as="sourcePoint" />
            <Array as="points">
              <mxPoint x="1040" y="510" />
            </Array>
          </mxGeometry>
        </mxCell>
        <mxCell id="bZ2BYmwptKXmW-rIYZp9-56" value="&lt;pre style=&quot;background-color: rgb(43 , 43 , 43) ; font-family: &amp;#34;jetbrains mono&amp;#34; , monospace ; font-size: 9.8pt&quot;&gt;&lt;font color=&quot;#66ff66&quot;&gt;prepareSynergyActions&lt;/font&gt;&lt;/pre&gt;" style="text;html=1;align=center;verticalAlign=middle;resizable=0;points=[];autosize=1;strokeColor=none;" vertex="1" parent="1">
          <mxGeometry x="980" y="495" width="160" height="50" as="geometry" />
        </mxCell>
        <mxCell id="bZ2BYmwptKXmW-rIYZp9-58" value="CastSynergyAction" style="shape=umlLifeline;perimeter=lifelinePerimeter;whiteSpace=wrap;html=1;container=1;collapsible=0;recursiveResize=0;outlineConnect=0;rounded=1;shadow=0;comic=0;labelBackgroundColor=none;strokeWidth=1;fontFamily=Verdana;fontSize=12;align=center;" vertex="1" parent="1">
          <mxGeometry x="1260" y="80" width="100" height="1145" as="geometry" />
        </mxCell>
        <mxCell id="bZ2BYmwptKXmW-rIYZp9-59" value="" style="html=1;points=[];perimeter=orthogonalPerimeter;" vertex="1" parent="bZ2BYmwptKXmW-rIYZp9-58">
          <mxGeometry x="40" y="405" width="10" height="80" as="geometry" />
        </mxCell>
        <mxCell id="bZ2BYmwptKXmW-rIYZp9-60" value="dispatch" style="html=1;verticalAlign=bottom;startArrow=oval;endArrow=block;startSize=8;" edge="1" target="bZ2BYmwptKXmW-rIYZp9-59" parent="bZ2BYmwptKXmW-rIYZp9-58">
          <mxGeometry relative="1" as="geometry">
            <mxPoint x="-20" y="405" as="sourcePoint" />
          </mxGeometry>
        </mxCell>
        <mxCell id="bZ2BYmwptKXmW-rIYZp9-61" value="" style="html=1;points=[];perimeter=orthogonalPerimeter;" vertex="1" parent="bZ2BYmwptKXmW-rIYZp9-58">
          <mxGeometry x="45" y="440" width="10" height="40" as="geometry" />
        </mxCell>
        <mxCell id="bZ2BYmwptKXmW-rIYZp9-62" value="self call" style="edgeStyle=orthogonalEdgeStyle;html=1;align=left;spacingLeft=2;endArrow=block;rounded=0;entryX=1;entryY=0;" edge="1" target="bZ2BYmwptKXmW-rIYZp9-61" parent="bZ2BYmwptKXmW-rIYZp9-58">
          <mxGeometry relative="1" as="geometry">
            <mxPoint x="50" y="420" as="sourcePoint" />
            <Array as="points">
              <mxPoint x="80" y="420" />
            </Array>
          </mxGeometry>
        </mxCell>
        <mxCell id="bZ2BYmwptKXmW-rIYZp9-64" value="" style="html=1;points=[];perimeter=orthogonalPerimeter;" vertex="1" parent="bZ2BYmwptKXmW-rIYZp9-58">
          <mxGeometry x="45" y="525" width="15" height="40" as="geometry" />
        </mxCell>
        <mxCell id="bZ2BYmwptKXmW-rIYZp9-65" value="self call" style="edgeStyle=orthogonalEdgeStyle;html=1;align=left;spacingLeft=2;endArrow=block;rounded=0;entryX=1;entryY=0;" edge="1" target="bZ2BYmwptKXmW-rIYZp9-64" parent="bZ2BYmwptKXmW-rIYZp9-58">
          <mxGeometry relative="1" as="geometry">
            <mxPoint x="50" y="505" as="sourcePoint" />
            <Array as="points">
              <mxPoint x="80" y="505" />
            </Array>
          </mxGeometry>
        </mxCell>
        <mxCell id="bZ2BYmwptKXmW-rIYZp9-68" value="dispatch" style="html=1;verticalAlign=bottom;endArrow=block;" edge="1" parent="bZ2BYmwptKXmW-rIYZp9-58" target="bZ2BYmwptKXmW-rIYZp9-67">
          <mxGeometry width="80" relative="1" as="geometry">
            <mxPoint x="70" y="550" as="sourcePoint" />
            <mxPoint x="150" y="550" as="targetPoint" />
          </mxGeometry>
        </mxCell>
        <mxCell id="bZ2BYmwptKXmW-rIYZp9-103" value="" style="html=1;points=[];perimeter=orthogonalPerimeter;" vertex="1" parent="bZ2BYmwptKXmW-rIYZp9-58">
          <mxGeometry x="45" y="1065" width="10" height="80" as="geometry" />
        </mxCell>
        <mxCell id="bZ2BYmwptKXmW-rIYZp9-104" value="dispatch" style="html=1;verticalAlign=bottom;startArrow=oval;endArrow=block;startSize=8;" edge="1" target="bZ2BYmwptKXmW-rIYZp9-103" parent="bZ2BYmwptKXmW-rIYZp9-58">
          <mxGeometry relative="1" as="geometry">
            <mxPoint x="-15" y="1065" as="sourcePoint" />
          </mxGeometry>
        </mxCell>
        <mxCell id="bZ2BYmwptKXmW-rIYZp9-63" value="&lt;pre style=&quot;background-color: rgb(43 , 43 , 43) ; font-family: &amp;#34;jetbrains mono&amp;#34; , monospace ; font-size: 9.8pt&quot;&gt;&lt;font color=&quot;#66ff66&quot;&gt;onOpen&lt;/font&gt;&lt;/pre&gt;" style="text;html=1;align=center;verticalAlign=middle;resizable=0;points=[];autosize=1;strokeColor=none;" vertex="1" parent="1">
          <mxGeometry x="1340" y="485" width="60" height="50" as="geometry" />
        </mxCell>
        <mxCell id="bZ2BYmwptKXmW-rIYZp9-66" value="&lt;pre style=&quot;background-color: rgb(43 , 43 , 43) ; font-family: &amp;#34;jetbrains mono&amp;#34; , monospace ; font-size: 9.8pt&quot;&gt;&lt;font color=&quot;#66ff66&quot;&gt;startMirrorIfNeeded&lt;/font&gt;&lt;/pre&gt;" style="text;html=1;align=center;verticalAlign=middle;resizable=0;points=[];autosize=1;strokeColor=none;" vertex="1" parent="1">
          <mxGeometry x="1295" y="565" width="150" height="50" as="geometry" />
        </mxCell>
        <mxCell id="bZ2BYmwptKXmW-rIYZp9-67" value="HeyCastClientManager" style="shape=umlLifeline;perimeter=lifelinePerimeter;whiteSpace=wrap;html=1;container=1;collapsible=0;recursiveResize=0;outlineConnect=0;rounded=1;shadow=0;comic=0;labelBackgroundColor=none;strokeWidth=1;fontFamily=Verdana;fontSize=12;align=center;" vertex="1" parent="1">
          <mxGeometry x="1430" y="80" width="100" height="580" as="geometry" />
        </mxCell>
        <mxCell id="bZ2BYmwptKXmW-rIYZp9-69" value="&lt;pre style=&quot;background-color: rgb(43 , 43 , 43) ; font-family: &amp;#34;jetbrains mono&amp;#34; , monospace ; font-size: 9.8pt&quot;&gt;&lt;font color=&quot;#66ff66&quot;&gt;startMirror&lt;/font&gt;&lt;/pre&gt;" style="text;html=1;align=center;verticalAlign=middle;resizable=0;points=[];autosize=1;strokeColor=none;" vertex="1" parent="1">
          <mxGeometry x="1375" y="595" width="90" height="50" as="geometry" />
        </mxCell>
        <mxCell id="bZ2BYmwptKXmW-rIYZp9-77" value="&lt;pre style=&quot;background-color: rgb(43 , 43 , 43) ; font-family: &amp;#34;jetbrains mono&amp;#34; , monospace ; font-size: 9.8pt&quot;&gt;&lt;font color=&quot;#66ff66&quot;&gt;onOpen&lt;/font&gt;&lt;/pre&gt;" style="text;html=1;align=center;verticalAlign=middle;resizable=0;points=[];autosize=1;strokeColor=none;" vertex="1" parent="1">
          <mxGeometry x="1030" y="675" width="60" height="50" as="geometry" />
        </mxCell>
        <mxCell id="bZ2BYmwptKXmW-rIYZp9-78" value="PCSynergyReceiver" style="shape=umlLifeline;perimeter=lifelinePerimeter;whiteSpace=wrap;html=1;container=1;collapsible=0;recursiveResize=0;outlineConnect=0;rounded=1;shadow=0;comic=0;labelBackgroundColor=none;strokeWidth=1;fontFamily=Verdana;fontSize=12;align=center;" vertex="1" parent="1">
          <mxGeometry x="1580" y="80" width="100" height="1040" as="geometry" />
        </mxCell>
        <mxCell id="bZ2BYmwptKXmW-rIYZp9-92" value="" style="html=1;points=[];perimeter=orthogonalPerimeter;" vertex="1" parent="bZ2BYmwptKXmW-rIYZp9-78">
          <mxGeometry x="45" y="915" width="10" height="80" as="geometry" />
        </mxCell>
        <mxCell id="bZ2BYmwptKXmW-rIYZp9-81" value="" style="html=1;points=[];perimeter=orthogonalPerimeter;" vertex="1" parent="1">
          <mxGeometry x="1625" y="720" width="10" height="80" as="geometry" />
        </mxCell>
        <mxCell id="bZ2BYmwptKXmW-rIYZp9-82" value="dispatch" style="html=1;verticalAlign=bottom;startArrow=oval;endArrow=block;startSize=8;" edge="1" target="bZ2BYmwptKXmW-rIYZp9-81" parent="1" source="7baba1c4bc27f4b0-7">
          <mxGeometry x="-0.0561" y="10" relative="1" as="geometry">
            <mxPoint x="1565" y="720" as="sourcePoint" />
            <mxPoint x="1" as="offset" />
          </mxGeometry>
        </mxCell>
        <mxCell id="bZ2BYmwptKXmW-rIYZp9-83" value="&lt;pre style=&quot;background-color: rgb(43 , 43 , 43) ; font-family: &amp;#34;jetbrains mono&amp;#34; , monospace ; font-size: 9.8pt&quot;&gt;&lt;font color=&quot;#66ff66&quot;&gt;onConnectSuccess&lt;/font&gt;&lt;/pre&gt;" style="text;html=1;align=center;verticalAlign=middle;resizable=0;points=[];autosize=1;strokeColor=none;" vertex="1" parent="1">
          <mxGeometry x="1235" y="685" width="130" height="50" as="geometry" />
        </mxCell>
        <mxCell id="bZ2BYmwptKXmW-rIYZp9-88" value="&lt;pre style=&quot;background-color: rgb(43 , 43 , 43) ; font-family: &amp;#34;jetbrains mono&amp;#34; , monospace ; font-size: 9.8pt&quot;&gt;&lt;font color=&quot;#66ff66&quot;&gt;sendSynergyCmd&lt;/font&gt;&lt;/pre&gt;" style="text;html=1;align=center;verticalAlign=middle;resizable=0;points=[];autosize=1;strokeColor=none;" vertex="1" parent="1">
          <mxGeometry x="1015" y="855" width="110" height="50" as="geometry" />
        </mxCell>
        <mxCell id="bZ2BYmwptKXmW-rIYZp9-91" value="&lt;pre style=&quot;background-color: rgb(43 , 43 , 43) ; font-family: &amp;#34;jetbrains mono&amp;#34; , monospace ; font-size: 9.8pt&quot;&gt;&lt;font color=&quot;#66ff66&quot;&gt;onMessage&lt;/font&gt;&lt;/pre&gt;" style="text;html=1;align=center;verticalAlign=middle;resizable=0;points=[];autosize=1;strokeColor=none;" vertex="1" parent="1">
          <mxGeometry x="1020" y="945" width="80" height="50" as="geometry" />
        </mxCell>
        <mxCell id="bZ2BYmwptKXmW-rIYZp9-93" value="dispatch" style="html=1;verticalAlign=bottom;startArrow=oval;endArrow=block;startSize=8;" edge="1" target="bZ2BYmwptKXmW-rIYZp9-92" parent="1" source="7baba1c4bc27f4b0-7">
          <mxGeometry relative="1" as="geometry">
            <mxPoint x="1575" y="995" as="sourcePoint" />
          </mxGeometry>
        </mxCell>
        <mxCell id="bZ2BYmwptKXmW-rIYZp9-94" value="&lt;pre style=&quot;background-color: rgb(43 , 43 , 43) ; font-family: &amp;#34;jetbrains mono&amp;#34; , monospace ; font-size: 9.8pt&quot;&gt;&lt;font color=&quot;#66ff66&quot;&gt;handleSynergyCmd&lt;/font&gt;&lt;/pre&gt;" style="text;html=1;align=center;verticalAlign=middle;resizable=0;points=[];autosize=1;strokeColor=none;" vertex="1" parent="1">
          <mxGeometry x="1245" y="955" width="130" height="50" as="geometry" />
        </mxCell>
        <mxCell id="bZ2BYmwptKXmW-rIYZp9-95" value="return" style="html=1;verticalAlign=bottom;endArrow=open;dashed=1;endSize=8;" edge="1" parent="1">
          <mxGeometry relative="1" as="geometry">
            <mxPoint x="1620" y="1060" as="sourcePoint" />
            <mxPoint x="1000" y="1060" as="targetPoint" />
          </mxGeometry>
        </mxCell>
        <mxCell id="bZ2BYmwptKXmW-rIYZp9-96" value="&lt;pre style=&quot;background-color: rgb(43 , 43 , 43) ; font-family: &amp;#34;jetbrains mono&amp;#34; , monospace ; font-size: 9.8pt&quot;&gt;&lt;font color=&quot;#66ff66&quot;&gt;activateSynergyActions&lt;/font&gt;&lt;/pre&gt;" style="text;html=1;align=center;verticalAlign=middle;resizable=0;points=[];autosize=1;strokeColor=none;" vertex="1" parent="1">
          <mxGeometry x="1215" y="1025" width="170" height="50" as="geometry" />
        </mxCell>
        <mxCell id="bZ2BYmwptKXmW-rIYZp9-99" value="&lt;pre style=&quot;background-color: rgb(43 , 43 , 43) ; font-family: &amp;#34;jetbrains mono&amp;#34; , monospace ; font-size: 9.8pt&quot;&gt;&lt;font color=&quot;#66ff66&quot;&gt;sendSynergyInfo&lt;/font&gt;&lt;/pre&gt;" style="text;html=1;align=center;verticalAlign=middle;resizable=0;points=[];autosize=1;strokeColor=none;" vertex="1" parent="1">
          <mxGeometry x="990" y="1095" width="120" height="50" as="geometry" />
        </mxCell>
        <mxCell id="bZ2BYmwptKXmW-rIYZp9-105" value="&lt;pre style=&quot;background-color: rgb(43 , 43 , 43) ; font-family: &amp;#34;jetbrains mono&amp;#34; , monospace ; font-size: 9.8pt&quot;&gt;&lt;font color=&quot;#66ff66&quot;&gt;activate&lt;/font&gt;&lt;/pre&gt;" style="text;html=1;align=center;verticalAlign=middle;resizable=0;points=[];autosize=1;strokeColor=none;" vertex="1" parent="1">
          <mxGeometry x="1225" y="1115" width="70" height="50" as="geometry" />
        </mxCell>
        <mxCell id="bZ2BYmwptKXmW-rIYZp9-106" value="&lt;pre style=&quot;background-color: rgb(43 , 43 , 43) ; font-family: &amp;#34;jetbrains mono&amp;#34; , monospace ; font-size: 9.8pt&quot;&gt;&lt;font color=&quot;#66ff66&quot;&gt;startMirrorIfNeeded&lt;/font&gt;&lt;/pre&gt;" style="text;html=1;align=center;verticalAlign=middle;resizable=0;points=[];autosize=1;strokeColor=none;" vertex="1" parent="1">
          <mxGeometry x="1305" y="1160" width="150" height="50" as="geometry" />
        </mxCell>
        <mxCell id="bZ2BYmwptKXmW-rIYZp9-107" value="IcdfManager" style="shape=umlLifeline;perimeter=lifelinePerimeter;whiteSpace=wrap;html=1;container=1;collapsible=0;recursiveResize=0;outlineConnect=0;rounded=1;shadow=0;comic=0;labelBackgroundColor=none;strokeWidth=1;fontFamily=Verdana;fontSize=12;align=center;" vertex="1" parent="1">
          <mxGeometry x="1740" y="80" width="100" height="1450" as="geometry" />
        </mxCell>
        <mxCell id="bZ2BYmwptKXmW-rIYZp9-108" value="" style="html=1;points=[];perimeter=orthogonalPerimeter;" vertex="1" parent="bZ2BYmwptKXmW-rIYZp9-107">
          <mxGeometry x="45" y="915" width="10" height="80" as="geometry" />
        </mxCell>
        <mxCell id="bZ2BYmwptKXmW-rIYZp9-109" value="" style="html=1;points=[];perimeter=orthogonalPerimeter;" vertex="1" parent="bZ2BYmwptKXmW-rIYZp9-107">
          <mxGeometry x="50" y="1250" width="20" height="80" as="geometry" />
        </mxCell>
        <mxCell id="bZ2BYmwptKXmW-rIYZp9-110" value="dispatch" style="html=1;verticalAlign=bottom;startArrow=oval;endArrow=block;startSize=8;" edge="1" target="bZ2BYmwptKXmW-rIYZp9-109" parent="bZ2BYmwptKXmW-rIYZp9-107">
          <mxGeometry x="-0.3333" y="10" relative="1" as="geometry">
            <mxPoint x="-10" y="1250" as="sourcePoint" />
            <mxPoint as="offset" />
          </mxGeometry>
        </mxCell>
        <mxCell id="bZ2BYmwptKXmW-rIYZp9-111" value="&lt;pre style=&quot;background-color: rgb(43 , 43 , 43) ; font-family: &amp;#34;jetbrains mono&amp;#34; , monospace ; font-size: 9.8pt&quot;&gt;&lt;font color=&quot;#66ff66&quot;&gt;initICDFService&lt;/font&gt;&lt;/pre&gt;" style="text;html=1;align=center;verticalAlign=middle;resizable=0;points=[];autosize=1;strokeColor=none;" vertex="1" parent="1">
          <mxGeometry x="1690" y="1295" width="120" height="50" as="geometry" />
        </mxCell>
        <mxCell id="bZ2BYmwptKXmW-rIYZp9-112" value="ClipBoardServiceManager" style="shape=umlLifeline;perimeter=lifelinePerimeter;whiteSpace=wrap;html=1;container=1;collapsible=0;recursiveResize=0;outlineConnect=0;rounded=1;shadow=0;comic=0;labelBackgroundColor=none;strokeWidth=1;fontFamily=Verdana;fontSize=12;align=center;" vertex="1" parent="1">
          <mxGeometry x="1880" y="80" width="100" height="1460" as="geometry" />
        </mxCell>
        <mxCell id="bZ2BYmwptKXmW-rIYZp9-114" value="" style="html=1;points=[];perimeter=orthogonalPerimeter;" vertex="1" parent="bZ2BYmwptKXmW-rIYZp9-112">
          <mxGeometry x="55" y="1280" width="10" height="80" as="geometry" />
        </mxCell>
        <mxCell id="bZ2BYmwptKXmW-rIYZp9-117" value="" style="html=1;points=[];perimeter=orthogonalPerimeter;" vertex="1" parent="bZ2BYmwptKXmW-rIYZp9-112">
          <mxGeometry x="45" y="1420" width="10" height="40" as="geometry" />
        </mxCell>
        <mxCell id="bZ2BYmwptKXmW-rIYZp9-118" value="self call" style="edgeStyle=orthogonalEdgeStyle;html=1;align=left;spacingLeft=2;endArrow=block;rounded=0;entryX=1;entryY=0;" edge="1" target="bZ2BYmwptKXmW-rIYZp9-117" parent="bZ2BYmwptKXmW-rIYZp9-112">
          <mxGeometry relative="1" as="geometry">
            <mxPoint x="50" y="1400" as="sourcePoint" />
            <Array as="points">
              <mxPoint x="80" y="1400" />
            </Array>
          </mxGeometry>
        </mxCell>
        <mxCell id="bZ2BYmwptKXmW-rIYZp9-115" value="dispatch" style="html=1;verticalAlign=bottom;startArrow=oval;endArrow=block;startSize=8;exitX=1.2;exitY=0.375;exitDx=0;exitDy=0;exitPerimeter=0;" edge="1" parent="1" target="bZ2BYmwptKXmW-rIYZp9-114" source="bZ2BYmwptKXmW-rIYZp9-109">
          <mxGeometry x="-0.3333" y="10" relative="1" as="geometry">
            <mxPoint x="1820" y="1360" as="sourcePoint" />
            <mxPoint as="offset" />
          </mxGeometry>
        </mxCell>
        <mxCell id="bZ2BYmwptKXmW-rIYZp9-116" value="&lt;pre style=&quot;background-color: rgb(43 , 43 , 43) ; font-family: &amp;#34;jetbrains mono&amp;#34; , monospace ; font-size: 9.8pt&quot;&gt;&lt;font color=&quot;#66ff66&quot;&gt;getInstance&lt;/font&gt;&lt;/pre&gt;" style="text;html=1;align=center;verticalAlign=middle;resizable=0;points=[];autosize=1;strokeColor=none;" vertex="1" parent="1">
          <mxGeometry x="1815" y="1315" width="90" height="50" as="geometry" />
        </mxCell>
        <mxCell id="bZ2BYmwptKXmW-rIYZp9-119" value="&lt;pre style=&quot;background-color: rgb(43 , 43 , 43) ; font-family: &amp;#34;jetbrains mono&amp;#34; , monospace ; font-size: 9.8pt&quot;&gt;&lt;font color=&quot;#66ff66&quot;&gt;OnPrimaryClipChangedListener&lt;/font&gt;&lt;/pre&gt;" style="text;html=1;align=center;verticalAlign=middle;resizable=0;points=[];autosize=1;strokeColor=none;" vertex="1" parent="1">
          <mxGeometry x="1875" y="1465" width="210" height="50" as="geometry" />
        </mxCell>
      </root>
    </mxGraphModel>
  </diagram>
</mxfile>
